<mxfile host="app.diagrams.net" modified="2023-04-08T17:58:01.643Z" agent="Mozilla/5.0 (Windows NT 10.0; Win64; x64) AppleWebKit/537.36 (KHTML, like Gecko) Chrome/111.0.0.0 Safari/537.36" version="21.1.5" etag="UoGrUdTV9v3PwUJ2vdSU" type="github">
  <diagram name="Page-1" id="ZI3aNHlWTtbdeQB9ckeo">
    <mxGraphModel>
      <root>
        <mxCell id="0" />
        <mxCell id="1" parent="0" />
      </root>
    </mxGraphModel>
  </diagram>
</mxfile>
